<?xml version="1.0" encoding="utf-8"?>
<!-- Generator: Adobe Illustrator 16.0.0, SVG Export Plug-In . SVG Version: 6.00 Build 0)  -->
<!DOCTYPE svg PUBLIC "-//W3C//DTD SVG 1.1//EN" "http://www.w3.org/Graphics/SVG/1.1/DTD/svg11.dtd">
<svg version="1.1" id="Layer_1" xmlns="http://www.w3.org/2000/svg" xmlns:xlink="http://www.w3.org/1999/xlink" x="0px" y="0px"
	 width="190px" height="75px" viewBox="0 0 190 75" enable-background="new 0 0 190 75" xml:space="preserve">
<g>
	<path fill="#1D1D1B" d="M79.914,49.297c-0.357-3.962-0.317-14.779-0.238-17.236c0.079-2.457,0.357-2.179,0.912-3.368
		c0.554-1.188,2.061-1.982,2.416-4.517c0.359-2.537-0.355-8.401-0.87-14.107c-0.516-5.706-0.556-4.637-0.556-3.843
		c0,0.792,0.08,14.819-0.04,15.572c-0.119,0.753-1.189,0.594-1.267,0c-0.079-0.595-0.119-1.069-0.317-4.121
		C79.755,14.626,79.28,5.75,79.12,5.79c-0.157,0.039-0.059,15.354-0.078,16.088c-0.019,0.66-0.44,0.566-0.552,0.566h-0.017
		c-0.113,0-0.546,0.094-0.564-0.566C77.891,21.145,77.988,5.829,77.83,5.79c-0.157-0.04-0.634,8.836-0.832,11.887
		c-0.197,3.052-0.238,3.526-0.317,4.121c-0.078,0.594-1.148,0.753-1.268,0c-0.117-0.753-0.039-14.78-0.039-15.572
		c0-0.793-0.04-1.863-0.555,3.843c-0.516,5.706-1.228,11.57-0.872,14.107c0.356,2.535,1.863,3.329,2.419,4.517
		c0.554,1.188,0.83,0.911,0.909,3.368c0.012,0.381,0.023,0.981,0.032,1.709H19.48l1.333,2.098h56.511
		c0.002,0.444,0.003,0.905,0.003,1.388H21.694l1.041,1.638l4.994,7.863l-4.994,7.864l-1.041,1.639h54.539
		c-0.063,0.473-0.127,0.938-0.191,1.387H20.813l-1.333,2.097h56.247c-0.113,0.715-0.22,1.344-0.314,1.838
		c-0.475,2.497-1.347,6.183-0.117,7.688c1.104,1.356,2.829,1.813,3.152,1.813h0.057c0.326,0,2.045-0.456,3.153-1.813
		c1.229-1.506,0.356-5.191-0.12-7.688C81.063,59.086,80.271,53.261,79.914,49.297z M36.526,42.81h-2.714v3.166h2.129v1.499h-2.129
		v4.333h-1.65V41.312h4.364V42.81z M46.693,49.288c0,1.681-0.885,2.641-2.503,2.641c-1.62,0-2.505-0.96-2.505-2.641V43.83
		c0-1.681,0.885-2.638,2.505-2.638c1.618,0,2.503,0.957,2.503,2.638V49.288z M57.131,49.288c0,1.681-0.884,2.641-2.504,2.641
		s-2.505-0.96-2.505-2.641V43.83c0-1.681,0.885-2.638,2.505-2.638s2.504,0.957,2.504,2.638V49.288z M67.764,49.215
		c0,1.679-0.81,2.593-2.46,2.593h-2.609V41.312h2.609c1.65,0,2.46,0.913,2.46,2.594V49.215z"/>
	<path fill="#1D1D1B" d="M44.19,42.69c-0.526,0-0.855,0.286-0.855,1.034v5.67c0,0.75,0.329,1.034,0.855,1.034
		c0.524,0,0.854-0.284,0.854-1.034v-5.67C45.044,42.977,44.715,42.69,44.19,42.69z"/>
	<path fill="#1D1D1B" d="M54.627,42.69c-0.526,0-0.855,0.286-0.855,1.034v5.67c0,0.75,0.329,1.034,0.855,1.034
		c0.524,0,0.854-0.284,0.854-1.034v-5.67C55.481,42.977,55.151,42.69,54.627,42.69z"/>
	<path fill="#1D1D1B" d="M65.274,42.81h-0.931v7.5h0.931c0.524,0,0.84-0.27,0.84-1.021V43.83
		C66.114,43.081,65.799,42.81,65.274,42.81z"/>
	<polygon fill="#1D1D1B" points="20.755,54.621 25.748,46.757 20.755,38.894 8.919,38.894 13.915,46.757 8.919,54.621 	"/>
	<polygon fill="#1D1D1B" points="181.081,38.894 169.247,38.894 164.253,46.757 169.247,54.621 181.081,54.621 176.085,46.757 	"/>
	<path fill="#1D1D1B" d="M123.868,49.273v-0.914c0-0.976-0.315-1.275-1.066-1.275h-0.733v3.226h0.944
		C123.568,50.31,123.868,50.054,123.868,49.273z"/>
	<path fill="#1D1D1B" d="M123.701,44.476v-0.584c0-0.751-0.254-1.082-0.839-1.082h-0.794v2.774h0.644
		C123.328,45.584,123.701,45.315,123.701,44.476z"/>
	<path fill="#1D1D1B" d="M169.188,57.646h-54.463c-0.045-0.459-0.091-0.922-0.138-1.387h53.72l-1.041-1.639l-4.995-7.864
		l4.995-7.863l1.041-1.638h-54.453c0.034-0.466,0.068-0.931,0.101-1.388h55.233l1.334-2.098h-56.428
		c0.018-0.319,0.033-0.61,0.041-0.828c0.05-1.379-0.519-25.346-0.629-27.415c-0.111-2.07-1.313-1.719-2.089-1.256
		c-0.776,0.461-1.959,2.771-1.959,2.771c-0.881,2.088-1.486,6.042-1.585,11.906c-0.097,5.864,0.247,12.862,0.542,14.931
		c0.296,2.069,0.988,6.06,1.036,7.738c0.05,1.675-0.147,3.201-0.64,12.168c-0.495,8.969-0.101,13.306-0.101,13.306
		c0.247,2.019,0.692,3.991,3.108,3.991c2.415,0,3.054-2.81,3.054-2.81c0.478-1.614,0.355-4.84,0.042-8.529h55.606L169.188,57.646z
		 M152.509,41.312h1.651v4.574l2.159-4.574h1.648l-2.294,4.678l2.294,5.818h-1.694l-1.604-4.184l-0.509,0.96v3.224h-1.651V41.312z
		 M141.592,41.312h2.07l1.694,6.283v-6.283h1.47v10.496h-1.693l-2.057-7.603v7.603h-1.484V41.312z M132.249,41.312h2.415
		l1.679,10.496h-1.663l-0.285-1.903h-2.024l-0.286,1.903h-1.514L132.249,41.312z M120.418,41.312h2.49
		c1.709,0,2.444,0.795,2.444,2.413v0.376c0,1.078-0.33,1.77-1.064,2.115c0.883,0.344,1.229,1.139,1.229,2.248v0.855
		c0,1.62-0.854,2.488-2.504,2.488h-2.595V41.312z"/>
	<polygon fill="#1D1D1B" points="133.375,43.171 132.581,48.479 134.17,48.479 	"/>
	<path fill="#1D1D1B" d="M99.421,46.604l-0.004-0.142c0.9,0.004,1.875-0.521,1.875-2.051c0-1.395-0.795-1.98-2.187-1.978h-0.192
		v9.603c0.352,0.055,0.728,0.076,1.122,0.076c2.006,0.006,3.071-1.192,3.071-2.783C103.106,47.02,100.872,46.6,99.421,46.604z"/>
	<path fill="#1D1D1B" d="M104.313,38.687c-2.259-2.605-5.593-4.256-9.313-4.256c-6.809,0-12.327,5.52-12.327,12.326
		c0,5.574,3.698,10.279,8.774,11.805c0.399,0.12,0.809,0.22,1.227,0.301c0.753,0.144,1.528,0.222,2.326,0.222
		c6.808,0,12.327-5.519,12.327-12.327c0-2.867-0.983-5.507-2.628-7.601C104.576,38.997,104.447,38.841,104.313,38.687z
		 M95.919,48.46l-0.146-0.002v-0.222c0-0.398-0.315-0.723-0.71-0.739h-4.8v3.86c0.012,0.522,0.437,0.943,0.963,0.943h0.188
		l0.002,0.149h-3.281l0.002-0.149h0.19c0.524,0,0.951-0.421,0.961-0.943V42.96c0-0.481-0.458-0.857-0.955-0.857h-0.19l-0.002-0.15
		h4.382c0.647-0.006,1.511-0.156,1.789-0.273v0.44v0.258v0.996l-0.15-0.002v-0.22c0-0.405-0.324-0.731-0.726-0.74h-3.173v4.636
		h4.785c0.401-0.007,0.725-0.336,0.725-0.738v-0.22l0.146-0.002V48.46z M99.987,52.658c-2.445,0-4.144-1.229-4.066-3.755
		l0.165-0.031c0.216,1.63,0.89,2.48,1.851,2.895v-8.731c-0.024-0.563-0.472-0.933-0.964-0.933h-0.188l-0.001-0.15h2.525
		c1.847,0,3.107,0.899,3.107,2.429c0,0.945-0.479,1.681-1.196,1.946c2.021,0.305,3.011,1.534,3.011,3.078
		C104.231,51.355,102.521,52.658,99.987,52.658z"/>
</g>
</svg>
