<svg id="Layer_1" data-name="Layer 1" xmlns="http://www.w3.org/2000/svg" viewBox="0 0 190 75"><defs><style>.cls-1{fill:#fff;}</style></defs><title>food-bank-logo-white</title><path class="cls-1" d="M79.914,49.3c-.357-3.962-.317-14.779-.238-17.236a5.01,5.01,0,0,1,.912-3.368c.554-1.188,2.061-1.982,2.416-4.517s-.355-8.4-.87-14.107-.556-4.637-.556-3.843.08,14.819-.04,15.572a.65.65,0,0,1-1.267,0c-.079-.595-.119-1.069-.317-4.121S79.28,5.75,79.12,5.79s-.059,15.354-.078,16.088c-.019.66-.44.566-.552.566h-.017c-.113,0-.546.094-.564-.566-.018-.733.079-16.049-.079-16.088S77.2,14.626,77,17.677,76.76,21.2,76.681,21.8a.65.65,0,0,1-1.268,0c-.117-.753-.039-14.78-.039-15.572s-.04-1.863-.555,3.843-1.228,11.57-.872,14.107,1.863,3.329,2.419,4.517a5.017,5.017,0,0,1,.909,3.368c.012.381.023.981.032,1.709H19.48l1.333,2.1H77.324c0,.444,0,.9,0,1.388H21.694l1.041,1.638,4.994,7.863-4.994,7.864L21.694,56.26H76.233c-.063.473-.127.938-.191,1.387H20.813l-1.333,2.1H75.727c-.113.715-.22,1.344-.314,1.838-.475,2.5-1.347,6.183-.117,7.688a5.342,5.342,0,0,0,3.152,1.813h.057a5.34,5.34,0,0,0,3.153-1.813c1.229-1.506.356-5.191-.12-7.688S80.271,53.261,79.914,49.3ZM36.526,42.81H33.812v3.166h2.129v1.5H33.812v4.333h-1.65v-10.5h4.364Zm10.167,6.478a2.508,2.508,0,1,1-5.008,0V43.83a2.507,2.507,0,1,1,5.008,0Zm10.438,0a2.508,2.508,0,1,1-5.009,0V43.83a2.508,2.508,0,1,1,5.009,0Zm10.633-.073c0,1.679-.81,2.593-2.46,2.593H62.695v-10.5H65.3c1.65,0,2.46.913,2.46,2.594Z"/><path class="cls-1" d="M44.19,42.69c-.526,0-.855.286-.855,1.034v5.67c0,.75.329,1.034.855,1.034s.854-.284.854-1.034v-5.67C45.044,42.977,44.715,42.69,44.19,42.69Z"/><path class="cls-1" d="M54.627,42.69c-.526,0-.855.286-.855,1.034v5.67c0,.75.329,1.034.855,1.034s.854-.284.854-1.034v-5.67C55.481,42.977,55.151,42.69,54.627,42.69Z"/><path class="cls-1" d="M65.274,42.81h-.931v7.5h.931c.524,0,.84-.27.84-1.021V43.83C66.114,43.081,65.8,42.81,65.274,42.81Z"/><polygon class="cls-1" points="20.755 54.621 25.748 46.757 20.755 38.894 8.919 38.894 13.915 46.757 8.919 54.621 20.755 54.621"/><polygon class="cls-1" points="181.081 38.894 169.247 38.894 164.253 46.757 169.247 54.621 181.081 54.621 176.085 46.757 181.081 38.894"/><path class="cls-1" d="M123.868,49.273v-.914c0-.976-.315-1.275-1.066-1.275h-.733V50.31h.944C123.568,50.31,123.868,50.054,123.868,49.273Z"/><path class="cls-1" d="M123.7,44.476v-.584c0-.751-.254-1.082-.839-1.082h-.794v2.774h.644C123.328,45.584,123.7,45.315,123.7,44.476Z"/><path class="cls-1" d="M169.188,57.646H114.725q-.067-.688-.138-1.387h53.72l-1.041-1.639-4.995-7.864,4.995-7.863,1.041-1.638H113.854c.034-.466.068-.931.1-1.388h55.233l1.334-2.1H114.094c.018-.319.033-.61.041-.828.05-1.379-.519-25.346-.629-27.415s-1.313-1.719-2.089-1.256-1.959,2.771-1.959,2.771c-.881,2.088-1.486,6.042-1.585,11.906a135.6,135.6,0,0,0,.542,14.931c.3,2.069.988,6.06,1.036,7.738s-.147,3.2-.64,12.168a103.025,103.025,0,0,0-.1,13.306c.247,2.019.692,3.991,3.108,3.991s3.054-2.81,3.054-2.81c.478-1.614.355-4.84.042-8.529H170.52ZM152.509,41.312h1.651v4.574l2.159-4.574h1.648l-2.294,4.678,2.294,5.818h-1.694l-1.6-4.184-.509.96v3.224h-1.651v-10.5Zm-10.917,0h2.07l1.694,6.283V41.312h1.47v10.5h-1.693l-2.057-7.6v7.6h-1.484v-10.5Zm-9.343,0h2.415l1.679,10.5H134.68l-.285-1.9h-2.024l-.286,1.9h-1.514Zm-11.831,0h2.49c1.709,0,2.444.795,2.444,2.413V44.1a2.065,2.065,0,0,1-1.064,2.115,2.122,2.122,0,0,1,1.229,2.248v.855a2.23,2.23,0,0,1-2.5,2.488h-2.6Z"/><polygon class="cls-1" points="133.375 43.171 132.581 48.479 134.17 48.479 133.375 43.171"/><path class="cls-1" d="M99.421,46.6l0-.142a1.814,1.814,0,0,0,1.875-2.051c0-1.4-.795-1.98-2.187-1.978h-.192v9.6a7.31,7.31,0,0,0,1.122.076,2.729,2.729,0,0,0,3.071-2.783C103.106,47.02,100.872,46.6,99.421,46.6Z"/><path class="cls-1" d="M104.313,38.687A12.326,12.326,0,1,0,91.447,58.562a12.554,12.554,0,0,0,1.227.3A12.322,12.322,0,0,0,104.7,39.157C104.576,39,104.447,38.841,104.313,38.687ZM95.919,48.46l-.146,0v-.222a.74.74,0,0,0-.71-.739h-4.8v3.86a.964.964,0,0,0,.963.943h.188l0,.149H88.135l0-.149h.19a.962.962,0,0,0,.961-.943v-8.4a.924.924,0,0,0-.955-.857h-.19l0-.15h4.382a6.5,6.5,0,0,0,1.789-.273v1.694l-.15,0v-.22a.741.741,0,0,0-.726-.74H90.263v4.636h4.785a.739.739,0,0,0,.725-.738v-.22l.146,0Zm4.068,4.2c-2.445,0-4.144-1.229-4.066-3.755l.165-.031a3.262,3.262,0,0,0,1.851,2.9V43.036a.958.958,0,0,0-.964-.933h-.188v-.15h2.525c1.847,0,3.107.9,3.107,2.429a1.973,1.973,0,0,1-1.2,1.946c2.021.305,3.011,1.534,3.011,3.078C104.231,51.355,102.521,52.658,99.987,52.658Z"/></svg>